<?xml version="1.0" encoding="UTF-8"?>
<svg id="Layer_1" xmlns="http://www.w3.org/2000/svg" version="1.1" viewBox="0 0 1920 1080">
  <!-- Generator: Adobe Illustrator 30.3.0, SVG Export Plug-In . SVG Version: 2.1.3 Build 182)  -->
  <g>
    <path d="M632.96,325.47v41.94h-226.72v-41.94h226.72ZM545.6,325.47v281.42h-52.96v-281.42h52.96Z"/>
    <path d="M668.14,325.47h102.25c21.39,0,39.75,3.22,55.09,9.66,15.33,6.45,27.12,15.98,35.37,28.61,8.24,12.63,12.37,28.16,12.37,46.58,0,14.56-2.58,27.19-7.73,37.88-5.16,10.7-12.4,19.65-21.74,26.87-9.34,7.22-20.33,12.89-32.95,17.01l-16.62,8.5h-90.26l-.39-41.94h67.46c10.95,0,20.04-1.93,27.25-5.8,7.22-3.87,12.66-9.21,16.33-16.04,3.67-6.83,5.51-14.62,5.51-23.39,0-9.4-1.81-17.56-5.41-24.45-3.61-6.89-9.08-12.21-16.43-15.95-7.34-3.74-16.62-5.61-27.83-5.61h-49.09v239.48h-53.15v-281.42ZM827.02,606.89l-65.14-126.02,56.25-.19,65.91,123.51v2.71h-57.02Z"/>
    <path d="M976.24,325.47v281.42h-53.15v-281.42h53.15Z"/>
    <path d="M1148.84,368.19l-80.21,238.71h-56.25l105.15-281.42h35.95l-4.64,42.72ZM1212.23,502.33v41.94h-150.95v-41.94h150.95ZM1215.91,606.89l-80.6-238.71-4.83-42.72h36.14l105.73,281.42h-56.44Z"/>
    <path d="M1354.3,325.47v281.42h-53.15v-281.42h53.15ZM1385.22,606.89h-60.69l.39-41.75h60.31c16.36,0,30.08-3.64,41.17-10.92,11.08-7.28,19.46-17.78,25.13-31.51,5.67-13.72,8.5-30.18,8.5-49.38v-14.5c0-14.82-1.61-27.9-4.83-39.24-3.22-11.34-7.96-20.87-14.21-28.61-6.25-7.73-13.95-13.59-23.1-17.59-9.15-3.99-19.65-5.99-31.51-5.99h-63.01v-41.94h63.01c18.81,0,35.98,3.16,51.51,9.47,15.53,6.32,28.99,15.37,40.4,27.16,11.4,11.79,20.17,25.87,26.29,42.23,6.12,16.37,9.18,34.66,9.18,54.89v14.11c0,20.1-3.06,38.37-9.18,54.8-6.12,16.43-14.88,30.51-26.29,42.23-11.4,11.73-24.97,20.75-40.69,27.06-15.72,6.32-33.18,9.47-52.38,9.47Z"/>
  </g>
  <g>
    <path d="M675.13,744.72l1.39-1.29c4.36,5.15,13.17,9.21,22.88,9.21,15.06,0,21.79-6.93,21.79-15.45,0-23.28-44.08-9.61-44.08-35.17,0-9.11,6.93-17.43,23.18-17.43,7.43,0,15.06,2.48,20.11,6.34l-1.09,1.58c-5.55-4.06-12.68-6.04-18.92-6.04-14.56,0-21.3,7.03-21.3,15.65,0,23.38,44.08,10,44.08,35.07,0,9.21-7.23,17.33-23.67,17.33-10.1,0-19.71-4.06-24.37-9.81Z"/>
    <path d="M734.76,719.56c0-20.01,15.25-34.97,35.56-34.97s35.56,14.96,35.56,34.97-15.26,34.97-35.56,34.97-35.56-14.96-35.56-34.97ZM803.9,719.56c0-18.92-14.46-33.08-33.58-33.08s-33.58,14.16-33.58,33.08,14.46,33.08,33.58,33.08,33.58-14.16,33.58-33.08Z"/>
    <path d="M824.89,684.89h1.98v67.46h41.31v1.88h-43.29v-69.34Z"/>
    <path d="M880.26,725.21v-40.31h1.98v40.22c0,18.52,9.01,27.54,24.76,27.54s24.76-9.01,24.76-27.54v-40.22h1.98v40.31c0,19.61-10.2,29.32-26.74,29.32s-26.75-9.71-26.75-29.32Z"/>
    <path d="M970.99,686.77h-25.75v-1.88h53.49v1.88h-25.75v67.46h-1.98v-67.46Z"/>
    <path d="M1012.3,684.89h1.98v69.34h-1.98v-69.34Z"/>
    <path d="M1033.3,719.56c0-20.01,15.26-34.97,35.56-34.97s35.56,14.96,35.56,34.97-15.25,34.97-35.56,34.97-35.56-14.96-35.56-34.97ZM1102.44,719.56c0-18.92-14.46-33.08-33.58-33.08s-33.58,14.16-33.58,33.08,14.46,33.08,33.58,33.08,33.58-14.16,33.58-33.08Z"/>
    <path d="M1177.92,684.89v69.34h-1.68l-50.82-65.67v65.67h-1.98v-69.34h1.68l50.82,65.67v-65.67h1.98Z"/>
    <path d="M1196.83,744.72l1.39-1.29c4.36,5.15,13.17,9.21,22.88,9.21,15.06,0,21.79-6.93,21.79-15.45,0-23.28-44.08-9.61-44.08-35.17,0-9.11,6.93-17.43,23.18-17.43,7.43,0,15.06,2.48,20.11,6.34l-1.09,1.58c-5.55-4.06-12.68-6.04-18.92-6.04-14.56,0-21.3,7.03-21.3,15.65,0,23.38,44.08,10,44.08,35.07,0,9.21-7.23,17.33-23.67,17.33-10.1,0-19.71-4.06-24.37-9.81Z"/>
  </g>
</svg>