<svg xmlns="http://www.w3.org/2000/svg" viewBox="-0.00 -213.60 719.40 359.28" width="719" height="359"><path fill="#000000" d="M0.0 0.0V-210.0H40.199999999999996L118.79999999999998 -79.5L196.2 -210.0H236.1L236.69999999999996 0.0H191.1L190.79999999999998 -126.0L129.0 -22.2H107.1L45.6 -123.3V0.0ZM393.0 3.5999999999999996Q368.70000000000005 3.5999999999999996 347.85 -4.35Q327.0 -12.299999999999999 311.70000000000005 -26.999999999999996Q296.40000000000003 -41.699999999999996 287.85 -61.5Q279.3 -81.3 279.3 -105.0Q279.3 -128.7 287.85 -148.5Q296.40000000000003 -168.29999999999998 311.85 -183.0Q327.3 -197.7 348.0 -205.64999999999998Q368.70000000000005 -213.6 393.3 -213.6Q420.6 -213.6 442.65000000000003 -204.14999999999998Q464.70000000000005 -194.7 479.70000000000005 -176.4L448.5 -147.6Q437.70000000000005 -159.9 424.5 -166.05Q411.3 -172.2 395.70000000000005 -172.2Q381.0 -172.2 368.70000000000005 -167.39999999999998Q356.40000000000003 -162.6 347.40000000000003 -153.6Q338.40000000000003 -144.6 333.45000000000005 -132.3Q328.5 -120.0 328.5 -105.0Q328.5 -90.0 333.45000000000005 -77.69999999999999Q338.40000000000003 -65.39999999999999 347.40000000000003 -56.39999999999999Q356.40000000000003 -47.4 368.70000000000005 -42.599999999999994Q381.0 -37.8 395.70000000000005 -37.8Q411.3 -37.8 424.5 -43.95Q437.70000000000005 -50.1 448.5 -62.699999999999996L479.70000000000005 -33.9Q464.70000000000005 -15.6 442.65000000000003 -6.0Q420.6 3.5999999999999996 393.0 3.5999999999999996ZM483.90000000000003 0.0 577.5 -210.0H625.5L719.4 0.0H668.4L649.8 -45.0H552.3000000000001L533.7 0.0ZM634.5 -81.89999999999999 601.2 -162.29999999999998 567.9 -81.89999999999999Z"/><rect fill="#000000" x="0.00" y="47.04" width="719.40" height="2.40"/><path fill="#000000" d="M18.750000000000057 145.68Q12.975000000000055 145.68 7.837500000000055 143.6175Q2.700000000000057 141.555 5.684341886080802e-14 138.405L1.3500000000000565 136.605Q3.900000000000057 139.45499999999998 8.587500000000055 141.4425Q13.275000000000055 143.43 18.675000000000058 143.43Q24.150000000000055 143.43 27.675000000000054 141.93Q31.200000000000053 140.43 32.88750000000005 137.91750000000002Q34.57500000000005 135.405 34.57500000000005 132.32999999999998Q34.57500000000005 128.73 32.775000000000055 126.55499999999999Q30.97500000000006 124.38 28.012500000000056 123.10499999999999Q25.050000000000054 121.83 21.562500000000057 121.005Q18.075000000000056 120.17999999999999 14.512500000000056 119.24249999999999Q10.950000000000056 118.30499999999999 7.987500000000057 116.8425Q5.025000000000057 115.38 3.262500000000057 112.79249999999999Q1.5000000000000568 110.205 1.5000000000000568 106.08Q1.5000000000000568 102.555 3.375000000000057 99.48Q5.250000000000057 96.405 9.225000000000056 94.4925Q13.200000000000056 92.58 19.425000000000058 92.58Q23.700000000000056 92.58 27.862500000000054 93.8925Q32.025000000000055 95.205 34.95000000000005 97.38L33.82500000000005 99.405Q30.675000000000054 97.08 26.850000000000055 95.955Q23.025000000000055 94.83 19.500000000000057 94.83Q14.250000000000057 94.83 10.762500000000056 96.3675Q7.275000000000057 97.905 5.625000000000057 100.455Q3.9750000000000565 103.005 3.9750000000000565 106.08Q3.9750000000000565 109.755 5.775000000000056 111.92999999999999Q7.575000000000056 114.10499999999999 10.537500000000056 115.38Q13.500000000000057 116.655 17.025000000000055 117.47999999999999Q20.550000000000058 118.30499999999999 24.075000000000056 119.24249999999999Q27.600000000000055 120.17999999999999 30.562500000000057 121.67999999999999Q33.525000000000055 123.17999999999999 35.28750000000005 125.6925Q37.050000000000054 128.20499999999998 37.050000000000054 132.255Q37.050000000000054 135.78 35.13750000000006 138.85500000000002Q33.22500000000006 141.93 29.137500000000056 143.805Q25.050000000000054 145.68 18.750000000000057 145.68ZM108.28125000000003 145.68Q102.50625000000004 145.68 97.55625000000003 143.6925Q92.60625000000003 141.70499999999998 88.93125000000003 138.105Q85.25625000000004 134.505 83.23125000000005 129.6675Q81.20625000000004 124.83 81.20625000000004 119.13Q81.20625000000004 113.42999999999999 83.23125000000005 108.5925Q85.25625000000004 103.755 88.93125000000003 100.155Q92.60625000000003 96.555 97.55625000000003 94.5675Q102.50625000000004 92.58 108.28125000000003 92.58Q114.13125000000002 92.58 119.08125000000003 94.5675Q124.03125000000003 96.555 127.66875000000003 100.155Q131.30625000000003 103.755 133.36875000000003 108.5925Q135.43125000000003 113.42999999999999 135.43125000000003 119.13Q135.43125000000003 124.83 133.36875000000003 129.6675Q131.30625000000003 134.505 127.66875000000003 138.105Q124.03125000000003 141.70499999999998 119.08125000000003 143.6925Q114.13125000000002 145.68 108.28125000000003 145.68ZM108.28125000000003 143.355Q113.53125000000003 143.355 118.03125000000003 141.555Q122.53125000000003 139.755 125.86875000000003 136.45499999999998Q129.20625000000004 133.155 131.04375000000005 128.76749999999998Q132.88125000000002 124.38 132.88125000000002 119.13Q132.88125000000002 113.88 131.04375000000005 109.49249999999999Q129.20625000000004 105.10499999999999 125.86875000000003 101.80499999999999Q122.53125000000003 98.505 118.03125000000003 96.705Q113.53125000000003 94.905 108.28125000000003 94.905Q103.10625000000003 94.905 98.60625000000003 96.705Q94.10625000000003 98.505 90.76875000000004 101.80499999999999Q87.43125000000003 105.10499999999999 85.59375000000003 109.49249999999999Q83.75625000000004 113.88 83.75625000000004 119.13Q83.75625000000004 124.38 85.59375000000003 128.76749999999998Q87.43125000000003 133.155 90.76875000000004 136.45499999999998Q94.10625000000003 139.755 98.60625000000003 141.555Q103.10625000000003 143.355 108.28125000000003 143.355ZM185.06250000000003 145.38V92.88H187.61250000000004V143.055H218.36250000000004V145.38ZM283.59375 145.68Q273.99375000000003 145.68 268.48125000000005 140.055Q262.96875 134.43 262.96875 123.255V92.88H265.51875V123.17999999999999Q265.51875 133.38 270.24375 138.3675Q274.96875 143.355 283.59375 143.355Q292.21875 143.355 296.94375 138.3675Q301.66875000000005 133.38 301.66875000000005 123.17999999999999V92.88H304.14375V123.255Q304.14375 134.43 298.63125 140.055Q293.11875000000003 145.68 283.59375 145.68ZM367.5 145.38V95.205H348.225V92.88H389.25V95.205H369.975V145.38ZM434.90625 145.38V92.88H437.45624999999995V145.38ZM514.1624999999999 145.68Q508.38749999999993 145.68 503.43749999999994 143.6925Q498.48749999999995 141.70499999999998 494.81249999999994 138.105Q491.13749999999993 134.505 489.11249999999995 129.6675Q487.0874999999999 124.83 487.0874999999999 119.13Q487.0874999999999 113.42999999999999 489.11249999999995 108.5925Q491.13749999999993 103.755 494.81249999999994 100.155Q498.48749999999995 96.555 503.43749999999994 94.5675Q508.38749999999993 92.58 514.1624999999999 92.58Q520.0124999999999 92.58 524.9624999999999 94.5675Q529.9124999999999 96.555 533.55 100.155Q537.1875 103.755 539.25 108.5925Q541.3125 113.42999999999999 541.3125 119.13Q541.3125 124.83 539.25 129.6675Q537.1875 134.505 533.55 138.105Q529.9124999999999 141.70499999999998 524.9624999999999 143.6925Q520.0124999999999 145.68 514.1624999999999 145.68ZM514.1624999999999 143.355Q519.4124999999999 143.355 523.9124999999999 141.555Q528.4124999999999 139.755 531.75 136.45499999999998Q535.0875 133.155 536.925 128.76749999999998Q538.7624999999999 124.38 538.7624999999999 119.13Q538.7624999999999 113.88 536.925 109.49249999999999Q535.0875 105.10499999999999 531.75 101.80499999999999Q528.4124999999999 98.505 523.9124999999999 96.705Q519.4124999999999 94.905 514.1624999999999 94.905Q508.98749999999995 94.905 504.48749999999995 96.705Q499.98749999999995 98.505 496.65 101.80499999999999Q493.31249999999994 105.10499999999999 491.4749999999999 109.49249999999999Q489.63749999999993 113.88 489.63749999999993 119.13Q489.63749999999993 124.38 491.4749999999999 128.76749999999998Q493.31249999999994 133.155 496.65 136.45499999999998Q499.98749999999995 139.755 504.48749999999995 141.555Q508.98749999999995 143.355 514.1624999999999 143.355ZM590.9437499999999 145.38V92.88H593.0437499999999L630.3187499999999 140.73V92.88H632.8687499999999V145.38H630.7687499999998L593.4937499999999 97.53V145.38ZM701.0999999999999 145.68Q695.3249999999999 145.68 690.1875 143.6175Q685.05 141.555 682.3499999999999 138.405L683.6999999999999 136.605Q686.2499999999999 139.45499999999998 690.9374999999999 141.4425Q695.6249999999999 143.43 701.0249999999999 143.43Q706.4999999999999 143.43 710.0249999999999 141.93Q713.55 140.43 715.2375 137.91750000000002Q716.925 135.405 716.925 132.32999999999998Q716.925 128.73 715.125 126.55499999999999Q713.3249999999999 124.38 710.3625 123.10499999999999Q707.3999999999999 121.83 703.9124999999999 121.005Q700.425 120.17999999999999 696.8625 119.24249999999999Q693.3 118.30499999999999 690.3374999999999 116.8425Q687.3749999999999 115.38 685.6125 112.79249999999999Q683.8499999999999 110.205 683.8499999999999 106.08Q683.8499999999999 102.555 685.7249999999999 99.48Q687.5999999999999 96.405 691.5749999999999 94.4925Q695.55 92.58 701.7749999999999 92.58Q706.05 92.58 710.2124999999999 93.8925Q714.3749999999999 95.205 717.3 97.38L716.175 99.405Q713.0249999999999 97.08 709.1999999999998 95.955Q705.3749999999999 94.83 701.8499999999999 94.83Q696.5999999999999 94.83 693.1125 96.3675Q689.6249999999999 97.905 687.9749999999999 100.455Q686.3249999999999 103.005 686.3249999999999 106.08Q686.3249999999999 109.755 688.125 111.92999999999999Q689.925 114.10499999999999 692.8874999999999 115.38Q695.8499999999999 116.655 699.3749999999999 117.47999999999999Q702.8999999999999 118.30499999999999 706.425 119.24249999999999Q709.9499999999999 120.17999999999999 712.9124999999999 121.67999999999999Q715.8749999999999 123.17999999999999 717.6374999999998 125.6925Q719.3999999999999 128.20499999999998 719.3999999999999 132.255Q719.3999999999999 135.78 717.4875 138.85500000000002Q715.5749999999999 141.93 711.4875 143.805Q707.3999999999999 145.68 701.0999999999999 145.68Z"/></svg>
